<?xml version="1.0" standalone="no"?>
<!DOCTYPE svg PUBLIC "-//W3C//DTD SVG 20010904//EN"
 "http://www.w3.org/TR/2001/REC-SVG-20010904/DTD/svg10.dtd">
<svg version="1.0" xmlns="http://www.w3.org/2000/svg"
 width="1500.000000pt" height="1500.000000pt" viewBox="0 0 1500.000000 1500.000000"
 preserveAspectRatio="xMidYMid meet">

<g transform="translate(0.000000,1500.000000) scale(0.100000,-0.100000)"
fill="#000000" stroke="none">
<path d="M7290 14993 c-1425 -39 -2809 -484 -3985 -1281 -1539 -1043 -2636
-2609 -3079 -4397 -152 -613 -219 -1166 -219 -1810 0 -344 10 -538 44 -840
187 -1695 947 -3269 2163 -4478 995 -991 2238 -1679 3596 -1991 1260 -289
2590 -250 3820 115 1657 491 3095 1544 4073 2979 1315 1934 1649 4380 900
6609 -579 1726 -1799 3206 -3388 4113 -938 535 -1940 850 -3025 952 -176 17
-619 37 -735 34 -38 -1 -113 -3 -165 -5z m440 -173 c548 -19 994 -79 1500
-201 1169 -282 2264 -860 3170 -1675 139 -125 465 -452 581 -584 594 -671
1077 -1473 1384 -2300 248 -669 392 -1341 446 -2085 14 -195 13 -745 -1 -950
-91 -1307 -500 -2516 -1213 -3585 -458 -685 -1044 -1305 -1702 -1799 -1047
-787 -2289 -1280 -3577 -1420 -522 -57 -1067 -59 -1588 -5 -1165 119 -2307
531 -3290 1187 -884 590 -1646 1383 -2197 2287 -452 741 -768 1556 -932 2400
-161 826 -178 1712 -50 2535 220 1415 843 2721 1805 3785 140 155 442 455 589
585 127 112 397 327 542 433 1175 855 2596 1345 4033 1392 118 4 217 7 220 8
3 1 129 -3 280 -8z"/>
<path d="M7190 14689 c-498 -20 -1053 -103 -1530 -230 -982 -261 -1888 -721
-2685 -1363 -361 -291 -780 -710 -1071 -1071 -1254 -1555 -1799 -3514 -1534
-5505 172 -1285 704 -2515 1534 -3545 290 -359 712 -781 1071 -1071 945 -761
2044 -1266 3235 -1484 621 -114 1326 -144 1965 -85 1649 154 3177 865 4364
2030 731 718 1292 1566 1665 2516 655 1669 655 3569 0 5238 -220 560 -513
1098 -867 1591 -228 316 -449 574 -761 885 -483 482 -965 849 -1546 1177 -998
563 -2080 869 -3252 918 -256 11 -314 10 -588 -1z m470 -2922 c293 -69 520
-191 726 -390 215 -206 354 -444 425 -723 176 -699 -155 -1418 -799 -1739
-147 -73 -295 -118 -495 -150 l-37 -6 2 -162 3 -162 432 -3 432 -2 20 -26 c19
-24 21 -41 21 -156 0 -128 0 -128 23 -123 12 2 178 34 369 70 365 69 374 70
398 25 6 -12 10 -181 10 -468 0 -439 0 -450 -21 -476 -11 -14 -30 -26 -42 -26
-12 0 -182 31 -377 68 l-355 68 -5 -130 c-6 -144 -11 -163 -47 -177 -14 -5
-402 -9 -934 -9 l-910 0 -24 25 -25 24 0 625 c0 446 3 632 11 650 7 14 25 30
42 36 18 6 135 10 293 10 l264 0 0 170 0 170 -27 6 c-615 132 -1072 594 -1195
1209 -32 156 -31 423 1 575 68 319 194 554 421 781 212 212 424 334 705 404
155 39 206 44 405 40 154 -3 203 -8 290 -28z m-3091 -5170 c32 -18 37 -18 105
-2 39 9 79 19 89 22 15 4 17 -6 17 -117 0 -88 -3 -122 -12 -125 -7 -2 -32 -9
-55 -15 l-43 -11 0 -100 c0 -77 -3 -100 -12 -96 -7 2 -61 15 -120 27 l-108 23
0 54 c0 47 -4 59 -29 84 -27 26 -36 29 -94 29 -61 0 -67 -2 -91 -31 -26 -30
-26 -33 -26 -195 l0 -164 150 0 c83 0 150 -4 150 -9 0 -4 -11 -58 -25 -119
-14 -61 -25 -113 -25 -116 0 -3 -56 -6 -125 -6 l-125 0 -2 -517 -3 -518 -117
-3 -118 -3 0 891 c0 725 3 897 14 923 16 40 77 95 114 103 15 3 32 7 37 10 6
2 102 2 215 1 177 -2 210 -5 239 -20z m3906 -617 c85 0 155 -1 155 -2 -1 -2
-13 -55 -29 -118 l-27 -115 -125 -5 -124 -5 -3 -522 -2 -523 -120 0 -120 0 0
938 0 937 118 26 117 25 3 -318 2 -318 155 0z m-3267 -327 l-3 -958 -120 0
-120 0 -3 932 -2 933 27 7 c88 22 181 41 201 42 l22 1 -2 -957z m-420 -315
l-3 -643 -120 0 -120 0 0 615 0 614 115 27 c63 15 118 28 123 28 4 1 6 -288 5
-641z m1709 610 c24 -16 49 -44 62 -70 21 -44 21 -54 21 -616 l0 -573 -117 3
-118 3 -5 495 c-3 272 -9 501 -14 509 -16 25 -75 41 -151 41 l-75 0 0 -525 0
-525 -120 0 -120 0 0 485 c0 341 -3 491 -11 509 -18 38 -66 56 -153 56 l-76 0
-2 -522 -3 -523 -117 -3 -118 -3 0 646 0 646 538 -3 538 -3 41 -27z m1350 -4
c21 -16 48 -50 61 -74 19 -39 22 -59 22 -167 l0 -123 -125 0 -125 0 0 53 c0
43 -5 58 -23 75 -46 43 -158 37 -192 -11 -10 -15 -15 -46 -15 -102 1 -124 16
-135 197 -135 145 0 189 -13 236 -69 44 -53 49 -87 45 -338 l-3 -231 -30 -43
c-55 -78 -78 -84 -330 -84 -245 0 -254 2 -313 70 -41 46 -46 67 -47 210 l0
120 120 0 120 0 3 -45 c5 -85 34 -110 128 -110 45 0 59 4 79 25 23 22 25 32
25 113 0 82 -2 90 -26 113 -24 23 -33 24 -162 27 -167 3 -173 4 -217 44 -65
56 -69 71 -73 293 -5 227 5 301 44 353 51 67 80 73 336 70 l226 -3 39 -31z
m1369 17 c53 -24 91 -74 104 -137 7 -32 9 -239 8 -589 l-3 -540 -260 -3 c-283
-3 -339 4 -393 45 -67 51 -73 82 -70 357 l3 244 31 39 c16 21 50 48 74 61 39
19 59 22 176 22 128 0 134 1 163 26 30 25 31 29 31 106 0 43 -5 88 -11 100
-20 37 -69 48 -220 48 -109 0 -140 3 -136 13 2 6 15 60 27 120 l23 107 206 0
c180 0 211 -3 247 -19z m882 -2 c29 -15 54 -37 73 -67 l29 -46 0 -169 c0 -131
-3 -168 -13 -164 -6 2 -60 15 -120 27 l-107 23 0 49 c0 99 -38 128 -166 128
l-74 0 0 -525 0 -525 -120 0 -120 0 0 645 0 645 287 0 c273 0 289 -1 331 -21z
m850 0 c26 -13 54 -38 70 -62 26 -38 27 -48 30 -179 l4 -138 -121 0 -121 0 0
40 c0 78 -43 120 -122 120 -40 0 -94 -24 -107 -48 -6 -12 -11 -54 -11 -96 0
-65 3 -79 24 -103 24 -28 24 -28 178 -33 150 -5 156 -6 196 -34 24 -16 50 -46
62 -71 20 -41 21 -57 18 -293 l-3 -250 -31 -39 c-62 -76 -71 -78 -324 -78
-253 0 -262 2 -324 78 l-31 39 -3 144 -3 144 120 0 121 0 0 -51 c0 -43 5 -55
29 -80 26 -26 36 -29 90 -29 49 0 65 4 88 24 25 22 28 31 31 104 4 77 3 81
-26 113 l-30 34 -139 3 c-76 1 -148 5 -160 7 -32 7 -81 53 -104 97 -19 37 -20
55 -17 287 l3 248 27 40 c15 23 44 49 70 62 40 19 58 21 257 21 198 0 218 -2
259 -21z m-6879 -1738 l-24 -19 -3 -351 -3 -351 145 0 c163 0 176 5 201 75 18
52 27 30 23 -56 l-3 -64 -242 -3 c-134 -1 -243 0 -243 3 0 3 9 14 20 25 19 19
20 33 20 365 l0 346 -25 24 -24 25 91 0 90 0 -23 -19z m5281 -162 l0 -99 65 0
c63 0 65 -1 65 -25 0 -24 -2 -25 -65 -25 l-65 0 0 -186 c0 -194 6 -224 42
-224 24 0 68 36 68 56 0 7 5 16 10 19 6 4 10 -11 10 -38 0 -38 -4 -48 -27 -63
-44 -28 -117 -24 -150 8 -30 31 -42 111 -42 306 l-1 122 -30 0 c-25 0 -30 4
-30 25 0 21 5 25 30 25 l30 0 0 73 c0 67 -2 75 -22 84 -20 9 -17 12 37 30 33
11 63 18 68 16 4 -2 7 -49 7 -104z m-4753 55 c15 -24 15 -29 2 -53 -27 -48
-109 -32 -109 22 0 56 76 77 107 31z m5 -378 c3 -206 5 -236 21 -253 9 -11 17
-23 17 -26 0 -4 -34 -7 -75 -7 -75 0 -88 7 -60 30 12 10 15 48 15 221 0 201
-1 208 -21 214 -11 4 -18 10 -14 13 6 7 92 40 107 41 4 1 8 -104 10 -233z
m1078 204 c70 -36 119 -119 120 -202 l0 -48 -204 -2 -205 -3 18 -53 c10 -29
29 -64 42 -79 34 -36 96 -63 150 -63 59 0 144 42 165 81 8 16 17 29 19 29 3 0
5 -20 5 -45 l0 -46 -62 -29 c-54 -26 -75 -30 -143 -30 -126 0 -211 51 -253
150 -19 45 -20 154 -3 204 16 45 72 111 114 133 66 33 173 35 237 3z m1477 -2
c92 -43 153 -156 138 -256 -11 -75 -34 -119 -87 -167 -61 -55 -103 -68 -200
-64 -94 5 -158 40 -202 112 -41 67 -48 170 -16 245 23 54 82 116 128 133 77
30 171 29 239 -3z m373 -150 c0 -156 3 -189 19 -224 31 -68 114 -94 178 -54
56 34 63 60 63 239 0 153 -1 160 -21 166 -12 4 -17 11 -13 15 13 11 112 38
119 32 3 -3 5 -110 5 -237 0 -195 2 -235 15 -245 28 -23 15 -31 -42 -28 -55 3
-58 5 -63 31 l-5 29 -24 -26 c-63 -67 -199 -54 -264 24 -38 45 -47 90 -47 241
0 137 -6 161 -40 171 -12 4 85 44 113 47 4 1 7 -81 7 -181z m819 156 c3 -2 -3
-20 -13 -40 -16 -34 -18 -35 -35 -20 -28 25 -73 20 -120 -15 l-43 -30 4 -169
c3 -143 6 -171 21 -187 9 -11 17 -23 17 -26 0 -4 -34 -7 -75 -7 -41 0 -75 3
-75 8 0 4 7 16 15 26 12 16 15 59 15 213 0 183 -1 193 -21 212 l-21 20 53 15
c69 21 69 21 69 -16 l0 -31 24 22 c37 35 91 50 139 39 23 -5 43 -11 46 -14z
m684 -2 c47 -16 47 -16 47 -60 l0 -45 -25 27 c-34 37 -84 56 -145 56 -44 0
-56 -5 -81 -29 -16 -16 -29 -36 -29 -45 0 -33 47 -66 144 -101 116 -41 160
-71 176 -120 31 -93 -58 -175 -191 -178 -47 -1 -71 5 -128 33 l-71 34 0 43 c0
24 2 43 5 43 3 0 20 -16 38 -37 80 -91 229 -96 269 -8 10 22 8 30 -9 53 -25
33 -45 44 -154 83 -113 39 -149 73 -149 138 0 54 18 84 63 108 62 33 152 35
240 5z m903 3 c51 -21 111 -82 131 -133 41 -107 14 -222 -69 -297 -61 -55
-103 -68 -200 -64 -95 5 -157 40 -203 113 -41 67 -47 168 -15 244 23 54 82
116 128 133 69 27 166 29 228 4z m572 1 c8 -5 6 -18 -5 -41 -15 -31 -18 -33
-33 -20 -26 24 -77 18 -121 -12 l-39 -28 0 -172 c0 -157 2 -175 19 -192 11
-11 17 -22 14 -25 -11 -10 -153 -7 -153 4 0 6 4 10 8 10 24 0 32 60 32 229 0
163 -2 180 -20 204 l-20 25 47 16 c66 23 73 21 73 -16 l0 -32 29 28 c43 41
122 51 169 22z m-5618 8 c0 -3 -7 -12 -15 -21 -8 -8 -14 -18 -12 -21 2 -4 35
-78 73 -164 37 -86 71 -155 74 -153 4 2 40 77 80 166 68 148 73 162 57 174
-28 20 -20 25 43 25 33 0 60 -3 60 -6 0 -3 -9 -13 -20 -22 -11 -10 -68 -120
-126 -247 -58 -126 -109 -233 -113 -238 -4 -4 -56 101 -117 234 -60 133 -117
247 -126 253 -33 20 -19 26 62 26 44 0 80 -3 80 -6z m1443 0 c3 -3 1 -14 -6
-24 -9 -16 2 -49 63 -190 40 -94 77 -167 81 -163 4 5 38 82 74 173 54 132 65
168 56 182 -17 27 -15 28 44 28 30 0 55 -3 55 -6 0 -3 -9 -13 -20 -22 -12 -10
-77 -158 -155 -352 -95 -236 -143 -342 -161 -357 -31 -28 -83 -30 -114 -5
l-21 17 19 50 20 50 12 -27 c15 -33 47 -45 66 -27 15 16 74 155 74 176 0 32
-191 449 -215 470 -14 12 -25 25 -25 28 0 7 145 6 153 -1z m4387 1 c0 -3 -5
-14 -12 -24 -10 -16 0 -46 62 -190 41 -94 77 -168 81 -164 4 5 38 82 75 172
55 135 65 167 55 182 -17 28 -15 29 44 29 30 0 55 -3 55 -6 0 -3 -9 -13 -20
-22 -11 -10 -78 -162 -155 -352 -96 -237 -142 -342 -161 -357 -31 -28 -83 -30
-114 -5 l-21 17 19 50 20 50 12 -27 c16 -33 47 -45 66 -26 8 8 29 50 48 94
l34 81 -105 236 c-73 165 -111 238 -124 242 -42 14 -14 25 61 25 44 0 80 -2
80 -5z"/>
<path d="M6805 11533 c-69 -25 -180 -89 -224 -129 -53 -47 -92 -124 -98 -193
-11 -121 39 -211 217 -392 122 -123 208 -170 328 -177 95 -5 146 16 192 80 76
104 85 269 26 460 -47 153 -76 217 -122 268 -79 87 -211 121 -319 83z"/>
<path d="M7867 11440 c-103 -26 -159 -77 -261 -236 -109 -171 -142 -269 -134
-399 10 -152 91 -225 252 -225 120 0 214 37 383 152 169 115 218 186 217 318
0 98 -25 151 -123 253 -110 115 -227 163 -334 137z"/>
<path d="M6205 10741 c-91 -25 -170 -92 -204 -172 -26 -60 -45 -202 -38 -282
14 -151 127 -264 277 -275 36 -2 124 3 195 12 190 23 287 60 378 144 94 88
111 178 55 284 -61 115 -178 191 -388 253 -128 38 -222 51 -275 36z"/>
<path d="M8211 10539 c-204 -25 -345 -98 -411 -213 -40 -69 -40 -123 1 -204
60 -121 181 -202 399 -268 208 -63 317 -48 413 55 68 73 89 139 91 291 1 111
-2 131 -22 176 -27 60 -79 113 -142 146 -38 19 -61 23 -150 25 -58 1 -139 -3
-179 -8z"/>
<path d="M6843 9969 c-87 -15 -168 -54 -285 -136 -196 -137 -242 -201 -242
-333 -1 -97 23 -150 105 -235 122 -127 232 -177 345 -156 116 22 174 74 282
257 105 177 138 302 113 426 -29 140 -150 207 -318 177z"/>
<path d="M7541 9908 c-68 -12 -115 -48 -147 -115 -24 -48 -29 -73 -32 -153 -3
-62 1 -117 11 -160 20 -83 109 -291 147 -343 42 -57 113 -104 177 -117 102
-22 188 5 319 98 148 105 198 255 133 401 -28 63 -235 272 -319 321 -104 61
-203 84 -289 68z"/>
<path d="M8914 5213 c-44 -9 -68 -49 -72 -122 -4 -74 12 -122 47 -141 11 -5
58 -10 105 -10 l86 0 0 140 0 140 -72 -1 c-40 -1 -83 -4 -94 -6z"/>
<path d="M5479 3897 c-35 -23 -72 -81 -83 -129 l-6 -28 171 0 171 0 -7 33
c-12 55 -43 104 -78 126 -48 29 -123 28 -168 -2z"/>
<path d="M6945 3901 c-65 -40 -94 -99 -94 -191 -1 -71 34 -147 85 -186 32 -25
46 -29 103 -29 81 0 118 23 153 93 35 72 32 173 -8 238 -17 29 -46 58 -69 71
-51 29 -128 31 -170 4z"/>
<path d="M9735 3901 c-65 -40 -94 -99 -94 -191 -1 -117 73 -210 173 -218 98
-8 163 46 187 155 23 101 -22 213 -101 253 -50 26 -125 26 -165 1z"/>
</g>
</svg>
