<svg xmlns="http://www.w3.org/2000/svg" version="1.1" xmlns:xlink="http://www.w3.org/1999/xlink" xmlns:svgjs="http://svgjs.dev/svgjs" width="1500" height="1500" viewBox="0 0 1500 1500"><rect width="1500" height="1500" fill="#ffffff"></rect><g transform="matrix(0.6666666666666666,0,0,0.6666666666666666,249.85778443113782,249.85778443113765)"><svg viewBox="0 0 334 334" data-background-color="#ffffff" preserveAspectRatio="xMidYMid meet" height="1500" width="1500" xmlns="http://www.w3.org/2000/svg" xmlns:xlink="http://www.w3.org/1999/xlink"><g id="tight-bounds" transform="matrix(1,0,0,1,0.04749999999998522,0.04750000000001364)"><svg viewBox="0 0 333.90454557049503 333.90454557049503" height="333.90454557049503" width="333.90454557049503"><g><svg></svg></g><g><svg viewBox="0 0 333.90454557049503 333.90454557049503" height="333.90454557049503" width="333.90454557049503"><g><path d="M0 166.952c0-92.205 74.747-166.952 166.952-166.952 92.205 0 166.952 74.747 166.953 166.952 0 92.205-74.747 166.952-166.953 166.953-92.205 0-166.952-74.747-166.952-166.953zM166.952 330.042c90.072 0 163.09-73.018 163.09-163.09 0-90.072-73.018-163.09-163.09-163.09-90.072 0-163.09 73.018-163.09 163.09 0 90.072 73.018 163.09 163.09 163.09z" data-fill-palette-color="tertiary" fill="#000000" stroke="transparent"></path><ellipse rx="160.27418187383762" ry="160.27418187383762" cx="166.95227278524752" cy="166.95227278524752" fill="#000000" stroke="transparent" stroke-width="0" fill-opacity="1" data-fill-palette-color="tertiary"></ellipse></g><g transform="matrix(1,0,0,1,87.1243548277884,71.17305217166896)"><svg viewBox="0 0 159.65583591491824 191.55844122715712" height="191.55844122715712" width="159.65583591491824"><g><svg viewBox="0 0 159.65583591491824 191.55844122715712" height="191.55844122715712" width="159.65583591491824"><g><svg viewBox="0 0 213.1584412271571 255.75199617284662" height="191.55844122715712" width="159.65583591491824"><g transform="matrix(1,0,0,1,0,154.05073673025032)"><svg viewBox="0 0 213.1584412271571 101.7012594425963" height="101.7012594425963" width="213.1584412271571"><g id="textblocktransform"><svg viewBox="0 0 213.1584412271571 101.7012594425963" height="101.7012594425963" width="213.1584412271571" id="textblock"><g><svg viewBox="0 0 213.1584412271571 57.183263781927174" height="57.183263781927174" width="213.1584412271571"><g transform="matrix(1,0,0,1,0,0)"><svg width="213.1584412271571" viewBox="2 -37.5 138.43 37.5" height="57.183263781927174" data-palette-color="#ffffff"><path d="M6.65 0L2 0 2-33.8Q2-35.3 3.05-36.35 4.1-37.4 5.55-37.4L5.55-37.4 12.4-37.4Q13.9-37.4 14.95-36.35 16-35.3 16-33.8L16-33.8 16-28.4 11.35-29.4 11.35-30.95Q11.35-31.65 10.83-32.18 10.3-32.7 9.55-32.7L9.55-32.7 8.45-32.7Q7.7-32.7 7.18-32.18 6.65-31.65 6.65-30.95L6.65-30.95 6.65-24.95 12.55-24.95 11.5-20.25 6.65-20.25 6.65 0ZM18.2-32.8L13.5-31.7 13.5-36.4 18.2-37.5 18.2-32.8ZM18.3 0L13.6 0 13.6-23.9 18.3-25 18.3 0ZM26.49 0L21.79 0 21.79-36.35 26.49-37.4 26.49 0ZM34.54 0L29.84 0 29.84-25 49.69-25Q51.19-25 52.24-23.93 53.29-22.85 53.29-21.35L53.29-21.35 53.29 0 48.64 0 48.64-18.5Q48.64-19.25 48.09-19.78 47.54-20.3 46.79-20.3L46.79-20.3 43.94-20.3 43.94 0 39.24 0 39.24-18.5Q39.24-19.25 38.69-19.78 38.14-20.3 37.39-20.3L37.39-20.3 34.54-20.3 34.54 0ZM75.94 0L69.09 0Q67.59 0 66.54-1.07 65.49-2.15 65.49-3.65L65.49-3.65 65.49-7.8 70.14-7.8 70.14-6.5Q70.14-5.75 70.69-5.23 71.24-4.7 71.99-4.7L71.99-4.7 73.04-4.7Q73.79-4.7 74.31-5.23 74.84-5.75 74.84-6.5L74.84-6.5 74.84-8.35Q74.84-9.1 74.31-9.63 73.79-10.15 73.04-10.15L73.04-10.15 69.09-10.15Q67.59-10.15 66.54-11.23 65.49-12.3 65.49-13.8L65.49-13.8 65.49-21.35Q65.49-22.85 66.54-23.93 67.59-25 69.09-25L69.09-25 75.94-25Q77.44-25 78.49-23.93 79.54-22.85 79.54-21.35L79.54-21.35 79.54-17.2 74.84-17.2 74.84-18.5Q74.84-19.25 74.31-19.78 73.79-20.3 73.04-20.3L73.04-20.3 71.99-20.3Q71.24-20.3 70.69-19.78 70.14-19.25 70.14-18.5L70.14-18.5 70.14-16.65Q70.14-15.9 70.69-15.38 71.24-14.85 71.99-14.85L71.99-14.85 75.94-14.85Q77.44-14.85 78.49-13.78 79.54-12.7 79.54-11.2L79.54-11.2 79.54-3.45Q79.49-2.05 78.44-1.03 77.39 0 75.94 0L75.94 0ZM87.23 0L82.53 0 82.53-36.4 87.23-37.45 87.23-25 93.19-25 92.08-20.3 87.23-20.3 87.23 0ZM106.78 0L96.33 0Q94.83 0 93.76-1.05 92.68-2.1 92.68-3.65L92.68-3.65 92.68-11.2Q92.68-12.7 93.76-13.78 94.83-14.85 96.33-14.85L96.33-14.85 100.23-14.85Q101.03-14.85 101.56-15.38 102.08-15.9 102.08-16.65L102.08-16.65 102.08-18.5Q102.08-19.25 101.56-19.78 101.03-20.3 100.23-20.3L100.23-20.3 94.83-20.3 95.88-25 103.13-25Q104.63-25 105.71-23.93 106.78-22.85 106.78-21.35L106.78-21.35 106.78 0ZM99.18-4.7L99.18-4.7 102.08-4.7 102.08-10.15 99.18-10.15Q98.43-10.15 97.91-9.63 97.38-9.1 97.38-8.35L97.38-8.35 97.38-6.5Q97.38-5.75 97.91-5.23 98.43-4.7 99.18-4.7ZM114.48 0L109.78 0 109.78-25 120.23-25Q121.73-25 122.81-23.93 123.88-22.85 123.88-21.35L123.88-21.35 123.88-15.9 119.18-16.95 119.18-18.45Q119.18-19.2 118.66-19.75 118.13-20.3 117.38-20.3L117.38-20.3 114.48-20.3 114.48 0ZM136.83 0L129.98 0Q128.48 0 127.43-1.07 126.38-2.15 126.38-3.65L126.38-3.65 126.38-7.8 131.03-7.8 131.03-6.5Q131.03-5.75 131.58-5.23 132.13-4.7 132.88-4.7L132.88-4.7 133.93-4.7Q134.68-4.7 135.2-5.23 135.73-5.75 135.73-6.5L135.73-6.5 135.73-8.35Q135.73-9.1 135.2-9.63 134.68-10.15 133.93-10.15L133.93-10.15 129.98-10.15Q128.48-10.15 127.43-11.23 126.38-12.3 126.38-13.8L126.38-13.8 126.38-21.35Q126.38-22.85 127.43-23.93 128.48-25 129.98-25L129.98-25 136.83-25Q138.33-25 139.38-23.93 140.43-22.85 140.43-21.35L140.43-21.35 140.43-17.2 135.73-17.2 135.73-18.5Q135.73-19.25 135.2-19.78 134.68-20.3 133.93-20.3L133.93-20.3 132.88-20.3Q132.13-20.3 131.58-19.78 131.03-19.25 131.03-18.5L131.03-18.5 131.03-16.65Q131.03-15.9 131.58-15.38 132.13-14.85 132.88-14.85L132.88-14.85 136.83-14.85Q138.33-14.85 139.38-13.78 140.43-12.7 140.43-11.2L140.43-11.2 140.43-3.45Q140.38-2.05 139.33-1.03 138.28 0 136.83 0L136.83 0Z" opacity="1" transform="matrix(1,0,0,1,0,0)" fill="#ffffff" class="wordmark-text-0" data-fill-palette-color="quaternary" id="text-0"></path></svg></g></svg></g><g transform="matrix(1,0,0,1,0,70.68285996250941)"><svg viewBox="0 0 213.1584412271571 31.018399480086888" height="31.018399480086888" width="213.1584412271571"><g transform="matrix(1,0,0,1,0,0)"><svg width="213.1584412271571" viewBox="2.25 -33 300.62 43.75" height="31.018399480086888" data-palette-color="#ffffff"><path d="M2.25 0L2.25-0.5 2.5-0.5Q2.9-0.5 3.2-0.78 3.5-1.05 3.73-1.45 3.95-1.85 4.08-2.3 4.2-2.75 4.2-3.15L4.2-3.15 4.2-29.9Q4.2-30.25 4.08-30.7 3.95-31.15 3.73-31.55 3.5-31.95 3.2-32.23 2.9-32.5 2.5-32.5L2.5-32.5 2.25-32.5 2.25-33 9.45-33 9.45-32.5 9.2-32.5Q8.8-32.5 8.5-32.23 8.2-31.95 8-31.55 7.8-31.15 7.68-30.7 7.55-30.25 7.55-29.9L7.55-29.9 7.55-1.85 18.5-1.85Q19.45-1.85 20.15-2.3 20.85-2.75 21.33-3.43 21.8-4.1 22.03-4.88 22.25-5.65 22.25-6.3L22.25-6.3 22.75-6.3 22.75 0 2.25 0ZM32.7 0L26.2 0 26.2-0.5Q26.6-0.5 26.9-0.8 27.2-1.1 27.4-1.5 27.6-1.9 27.7-2.38 27.8-2.85 27.8-3.25L27.8-3.25 27.8-17.1Q27.8-17.95 27.55-18.73 27.3-19.5 26.1-19.55L26.1-19.55 26.1-20 31.1-21.6 31.1-3.25Q31.1-2.85 31.2-2.38 31.3-1.9 31.5-1.5 31.7-1.1 32-0.8 32.3-0.5 32.7-0.5L32.7-0.5 32.7 0ZM26.45-26.4L26.45-26.4Q26.45-27.4 27.12-28.1 27.8-28.8 28.8-28.8L28.8-28.8Q29.8-28.8 30.5-28.1 31.2-27.4 31.2-26.4L31.2-26.4Q31.2-25.4 30.5-24.75 29.8-24.1 28.8-24.1L28.8-24.1Q27.8-24.1 27.12-24.75 26.45-25.4 26.45-26.4ZM53.34-21L58.25-21 58.25-20.5Q57.9-20.5 57.55-20.25 57.2-20 56.87-19.6 56.55-19.2 56.27-18.73 56-18.25 55.8-17.85L55.8-17.85 47.2 0.85 38.65-18.05Q38.3-18.85 37.75-19.68 37.2-20.5 36.34-20.5L36.34-20.5 36.34-21 43.2-21 43.2-20.5Q42.9-20.5 42.42-20.2 41.95-19.9 41.95-19.35L41.95-19.35Q41.95-19.1 42.34-18.2L42.34-18.2 48.09-5.25 54.3-18.75Q54.5-19.25 54.5-19.5L54.5-19.5Q54.5-19.95 54.07-20.23 53.65-20.5 53.34-20.5L53.34-20.5 53.34-21ZM81.44-10.1L64.09-10.1Q64.29-8.35 64.94-6.78 65.59-5.2 66.67-4 67.74-2.8 69.29-2.08 70.84-1.35 72.89-1.35L72.89-1.35Q73.99-1.35 75.22-1.68 76.44-2 77.49-2.6 78.54-3.2 79.37-4.08 80.19-4.95 80.49-6.05L80.49-6.05 80.94-6.05 80.94-2.3Q80.64-2.3 80.27-2.1 79.89-1.9 79.39-1.6L79.39-1.6Q78.39-1 76.69-0.33 74.99 0.35 72.19 0.35L72.19 0.35Q69.94 0.35 67.92-0.3 65.89-0.95 64.34-2.3 62.79-3.65 61.87-5.75 60.94-7.85 60.94-10.75L60.94-10.75Q60.94-12.6 61.57-14.5 62.19-16.4 63.47-17.93 64.74-19.45 66.74-20.4 68.74-21.35 71.54-21.35L71.54-21.35Q74.04-21.35 75.92-20.5 77.79-19.65 79.02-18.15 80.24-16.65 80.84-14.6 81.44-12.55 81.44-10.1L81.44-10.1ZM71.34-19.7L71.34-19.7Q69.59-19.7 68.32-19 67.04-18.3 66.14-17.2 65.24-16.1 64.74-14.7 64.24-13.3 64.09-11.9L64.09-11.9 78.34-11.9Q78.29-13.35 77.82-14.75 77.34-16.15 76.49-17.25 75.64-18.35 74.34-19.03 73.04-19.7 71.34-19.7ZM116.89-18.3L106.59 7.15Q105.89 9.25 104.81 10 103.74 10.75 102.59 10.75L102.59 10.75Q101.84 10.75 101.26 10.55 100.69 10.35 100.26 10.08 99.84 9.8 99.59 9.55 99.34 9.3 99.29 9.15L99.29 9.15 100.94 5.1Q101.19 6 101.44 6.45L101.44 6.45Q101.69 6.95 102.14 7.35 102.59 7.75 103.24 7.75L103.24 7.75Q104.44 7.75 105.14 6L105.14 6 107.59-0.15 99.54-18.35Q99.29-18.95 98.71-19.73 98.14-20.5 97.14-20.5L97.14-20.5 97.14-21 103.74-21 103.74-20.5Q103.54-20.5 103.24-20.15 102.94-19.8 102.94-19.25L102.94-19.25Q102.94-18.8 103.14-18.45L103.14-18.45 109.29-4.3 115.19-18.75Q115.34-19.1 115.34-19.4L115.34-19.4Q115.34-19.9 115.01-20.2 114.69-20.5 114.34-20.5L114.34-20.5 114.34-21 119.19-21 119.19-20.5Q118.39-20.5 117.81-19.83 117.24-19.15 116.89-18.3L116.89-18.3ZM132.79 0.35L132.79 0.35Q130.29 0.35 128.29-0.48 126.29-1.3 124.86-2.73 123.44-4.15 122.66-6.1 121.89-8.05 121.89-10.35L121.89-10.35Q121.89-12.8 122.74-14.83 123.59-16.85 125.09-18.3 126.59-19.75 128.64-20.55 130.69-21.35 133.09-21.35L133.09-21.35Q135.49-21.35 137.49-20.58 139.49-19.8 140.94-18.4 142.39-17 143.19-15.08 143.99-13.15 143.99-10.85L143.99-10.85Q143.99-8.7 143.26-6.68 142.54-4.65 141.11-3.1 139.69-1.55 137.61-0.6 135.54 0.35 132.79 0.35ZM132.49-19.7L132.49-19.7Q130.69-19.6 129.31-18.82 127.94-18.05 127.01-16.82 126.09-15.6 125.61-14.05 125.14-12.5 125.14-10.9L125.14-10.9Q125.14-9.05 125.71-7.33 126.29-5.6 127.36-4.25 128.44-2.9 129.94-2.1 131.44-1.3 133.29-1.3L133.29-1.3Q135.14-1.3 136.56-2.1 137.99-2.9 138.94-4.17 139.89-5.45 140.36-7.05 140.84-8.65 140.84-10.25L140.84-10.25Q140.84-11.9 140.34-13.58 139.84-15.25 138.79-16.63 137.74-18 136.16-18.85 134.59-19.7 132.49-19.7ZM168.23-21.55L168.23-3.25Q168.23-2.9 168.33-2.43 168.43-1.95 168.61-1.53 168.78-1.1 169.08-0.8 169.38-0.5 169.78-0.5L169.78-0.5 169.78 0 164.93 0 164.93-2.75Q164.18-1.65 162.73-0.6 161.28 0.45 158.98 0.45L158.98 0.45Q156.08 0.45 154.38-0.55 152.68-1.55 151.78-3.1 150.88-4.65 150.63-6.48 150.38-8.3 150.38-9.9L150.38-9.9 150.38-17.05Q150.38-17.5 150.36-17.93 150.33-18.35 150.16-18.7 149.98-19.05 149.63-19.28 149.28-19.5 148.63-19.5L148.63-19.5 148.63-19.95 153.68-21.55 153.68-8.8Q153.68-5 155.33-3.2 156.98-1.4 159.38-1.4L159.38-1.4Q160.68-1.4 161.71-1.98 162.73-2.55 163.46-3.35 164.18-4.15 164.56-5 164.93-5.85 164.93-6.4L164.93-6.4 164.93-17.05Q164.93-17.5 164.91-17.93 164.88-18.35 164.71-18.7 164.53-19.05 164.18-19.28 163.83-19.5 163.18-19.5L163.18-19.5 163.18-19.95 168.23-21.55ZM188.33-20.4L186.83-17.35Q186.23-18.35 185.58-18.6 184.93-18.85 184.08-18.85L184.08-18.85Q183.53-18.85 182.91-18.6 182.28-18.35 181.68-17.95 181.08-17.55 180.5-17.07 179.93-16.6 179.53-16.2L179.53-16.2 179.53-3.2Q179.53-2.8 179.63-2.35 179.73-1.9 179.95-1.48 180.18-1.05 180.45-0.78 180.73-0.5 181.13-0.5L181.13-0.5 181.13 0 174.63 0 174.63-0.5Q174.98-0.5 175.28-0.78 175.58-1.05 175.81-1.48 176.03-1.9 176.13-2.35 176.23-2.8 176.23-3.2L176.23-3.2 176.23-17.15Q176.23-17.85 175.78-18.55 175.33-19.25 174.48-19.45L174.48-19.45 174.48-19.85 179.53-21.35 179.53-18.35Q179.98-18.9 180.48-19.43 180.98-19.95 181.6-20.38 182.23-20.8 182.98-21.08 183.73-21.35 184.73-21.35L184.73-21.35Q185.43-21.35 186.53-21.05 187.63-20.75 188.33-20.4L188.33-20.4ZM220.72-5.7L220.72-5.7Q220.72-4.4 220.07-3.3 219.42-2.2 218.3-1.38 217.17-0.55 215.67-0.08 214.17 0.4 212.42 0.4L212.42 0.4Q210.28 0.4 208.92-0.18 207.57-0.75 206.63-1.35L206.63-1.35Q205.97-1.75 205.42-2.02 204.88-2.3 204.22-2.3L204.22-2.3 204.22-6.1 204.72-6.1Q204.88-5.4 205.6-4.58 206.32-3.75 207.35-3.05 208.38-2.35 209.6-1.88 210.82-1.4 212.07-1.4L212.07-1.4Q212.97-1.4 213.92-1.6 214.88-1.8 215.65-2.25 216.42-2.7 216.95-3.38 217.47-4.05 217.47-5L217.47-5Q217.47-5.95 216.92-6.65 216.38-7.35 215.53-7.88 214.67-8.4 213.57-8.8 212.47-9.2 211.38-9.55L211.38-9.55Q210.07-9.95 208.75-10.45 207.42-10.95 206.38-11.63 205.32-12.3 204.67-13.28 204.03-14.25 204.03-15.6L204.03-15.6Q204.03-16.75 204.45-17.8 204.88-18.85 205.85-19.63 206.82-20.4 208.38-20.88 209.92-21.35 212.13-21.35L212.13-21.35Q214.07-21.35 215.15-21.03 216.22-20.7 216.92-20.35L216.92-20.35Q217.38-20.1 217.82-19.98 218.28-19.85 218.82-19.85L218.82-19.85 218.82-16.35 218.42-16.35Q217.53-18 215.67-18.85 213.82-19.7 211.88-19.7L211.88-19.7Q210.63-19.7 209.72-19.38 208.82-19.05 208.25-18.57 207.67-18.1 207.4-17.5 207.13-16.9 207.13-16.3L207.13-16.3Q207.13-15.45 207.6-14.85 208.07-14.25 208.9-13.8 209.72-13.35 210.75-12.95 211.78-12.55 212.92-12.2L212.92-12.2Q214.32-11.75 215.72-11.23 217.13-10.7 218.22-9.95 219.32-9.2 220.03-8.18 220.72-7.15 220.72-5.7ZM235.52-19.3L229.92-19.3 229.92-7.25Q229.92-5.95 229.97-4.9 230.02-3.85 230.22-3.15 230.42-2.45 230.82-2.08 231.22-1.7 231.92-1.7L231.92-1.7Q232.97-1.7 233.9-2.7 234.82-3.7 235.07-5.1L235.07-5.1 235.52-5.1 235.52-1.45Q235.07-1.45 234.77-1.15L234.77-1.15Q234.37-0.8 233.65-0.4 232.92 0 231.47 0L231.47 0Q229.67 0 228.67-0.7 227.67-1.4 227.22-2.55 226.77-3.7 226.7-5.1 226.62-6.5 226.62-7.95L226.62-7.95 226.62-19.3 223.82-19.3 223.82-21 226.62-21 226.62-25.45Q226.62-26.3 226.4-27.03 226.17-27.75 224.92-27.8L224.92-27.8 224.92-28.3 229.92-29.9 229.92-21 235.52-21 235.52-19.3ZM249.77 0.35L249.77 0.35Q247.27 0.35 245.27-0.48 243.27-1.3 241.84-2.73 240.42-4.15 239.65-6.1 238.87-8.05 238.87-10.35L238.87-10.35Q238.87-12.8 239.72-14.83 240.57-16.85 242.07-18.3 243.57-19.75 245.62-20.55 247.67-21.35 250.07-21.35L250.07-21.35Q252.47-21.35 254.47-20.58 256.47-19.8 257.92-18.4 259.37-17 260.17-15.08 260.97-13.15 260.97-10.85L260.97-10.85Q260.97-8.7 260.25-6.68 259.52-4.65 258.1-3.1 256.67-1.55 254.59-0.6 252.52 0.35 249.77 0.35ZM249.47-19.7L249.47-19.7Q247.67-19.6 246.3-18.82 244.92-18.05 244-16.82 243.07-15.6 242.59-14.05 242.12-12.5 242.12-10.9L242.12-10.9Q242.12-9.05 242.7-7.33 243.27-5.6 244.34-4.25 245.42-2.9 246.92-2.1 248.42-1.3 250.27-1.3L250.27-1.3Q252.12-1.3 253.55-2.1 254.97-2.9 255.92-4.17 256.87-5.45 257.35-7.05 257.82-8.65 257.82-10.25L257.82-10.25Q257.82-11.9 257.32-13.58 256.82-15.25 255.77-16.63 254.72-18 253.15-18.85 251.57-19.7 249.47-19.7ZM279.12-20.4L277.62-17.35Q277.02-18.35 276.37-18.6 275.72-18.85 274.87-18.85L274.87-18.85Q274.32-18.85 273.69-18.6 273.07-18.35 272.47-17.95 271.87-17.55 271.29-17.07 270.72-16.6 270.32-16.2L270.32-16.2 270.32-3.2Q270.32-2.8 270.42-2.35 270.52-1.9 270.74-1.48 270.97-1.05 271.24-0.78 271.52-0.5 271.92-0.5L271.92-0.5 271.92 0 265.42 0 265.42-0.5Q265.77-0.5 266.07-0.78 266.37-1.05 266.59-1.48 266.82-1.9 266.92-2.35 267.02-2.8 267.02-3.2L267.02-3.2 267.02-17.15Q267.02-17.85 266.57-18.55 266.12-19.25 265.27-19.45L265.27-19.45 265.27-19.85 270.32-21.35 270.32-18.35Q270.77-18.9 271.27-19.43 271.77-19.95 272.39-20.38 273.02-20.8 273.77-21.08 274.52-21.35 275.52-21.35L275.52-21.35Q276.22-21.35 277.32-21.05 278.42-20.75 279.12-20.4L279.12-20.4ZM300.57-18.3L290.27 7.15Q289.57 9.25 288.49 10 287.42 10.75 286.27 10.75L286.27 10.75Q285.52 10.75 284.94 10.55 284.37 10.35 283.94 10.08 283.52 9.8 283.27 9.55 283.02 9.3 282.97 9.15L282.97 9.15 284.62 5.1Q284.87 6 285.12 6.45L285.12 6.45Q285.37 6.95 285.82 7.35 286.27 7.75 286.92 7.75L286.92 7.75Q288.12 7.75 288.82 6L288.82 6 291.27-0.15 283.22-18.35Q282.97-18.95 282.39-19.73 281.82-20.5 280.82-20.5L280.82-20.5 280.82-21 287.42-21 287.42-20.5Q287.22-20.5 286.92-20.15 286.62-19.8 286.62-19.25L286.62-19.25Q286.62-18.8 286.82-18.45L286.82-18.45 292.97-4.3 298.87-18.75Q299.02-19.1 299.02-19.4L299.02-19.4Q299.02-19.9 298.69-20.2 298.37-20.5 298.02-20.5L298.02-20.5 298.02-21 302.87-21 302.87-20.5Q302.07-20.5 301.49-19.83 300.92-19.15 300.57-18.3L300.57-18.3Z" opacity="1" transform="matrix(1,0,0,1,0,0)" fill="#ffffff" class="slogan-text-1" data-fill-palette-color="quaternary" id="text-1"></path></svg></g></svg></g></svg></g></svg></g><g transform="matrix(1,0,0,1,56.390655140028805,0)"><svg viewBox="0 0 100.3771309470995 140.55114054966808" height="140.55114054966808" width="100.3771309470995"><g><svg xmlns="http://www.w3.org/2000/svg" xmlns:xlink="http://www.w3.org/1999/xlink" version="1.1" x="0" y="0" viewBox="8.025216618314102 3.133047422390476 24.4487944194603 34.23395257760952" enable-background="new 0 0 40 40" xml:space="preserve" height="140.55114054966808" width="100.3771309470995" class="icon-icon-0" data-fill-palette-color="quaternary" id="icon-0"><path d="M32.294 28.918c-0.116-0.096-0.268-0.135-0.413-0.106l-5.223 0.992V28.02c0-0.276-0.224-0.5-0.5-0.5h-6.049v-2.385c5.177-0.492 9.436-4.597 9.93-9.963 0.557-6.064-3.906-11.434-9.973-11.992C13.998 2.623 8.631 7.086 8.072 13.152c-0.527 5.747 3.456 10.862 9.037 11.858v2.509h-3.936c-0.276 0-0.5 0.224-0.5 0.5v8.848c0 0.276 0.224 0.5 0.5 0.5h12.984c0.276 0 0.5-0.224 0.5-0.5v-1.786l5.223 0.994c0.031 0.006 0.062 0.009 0.094 0.009 0.115 0 0.229-0.04 0.318-0.115 0.115-0.095 0.182-0.235 0.182-0.385v-6.281C32.475 29.153 32.408 29.013 32.294 28.918zM29.02 14.707l-0.064 0.713c-0.145 1.551-1.482 2.457-2.977 2.012l-1.25-0.371c-1.49-0.447-2.637-1.637-2.543-2.65 0.092-1.01 1.438-1.963 2.986-2.115l1.289-0.127C28.008 12.012 29.162 13.156 29.02 14.707zM20.727 7.891l0.709-1.096c0.852-1.301 2.457-1.475 3.57-0.387l0.512 0.502c1.109 1.092 0.969 2.705-0.311 3.592l-1.064 0.736c-1.281 0.885-2.924 1.025-3.648 0.316C19.768 10.842 19.871 9.193 20.727 7.891zM19.986 17.031c0.842-0.57 2.43-0.135 3.533 0.963l0.916 0.918c1.102 1.102 0.945 2.719-0.342 3.59L23.5 22.9c-1.291 0.875-2.836 0.418-3.441-1.02l-0.508-1.203C18.951 19.24 19.145 17.6 19.986 17.031zM14.088 5.629l0.623-0.35c1.359-0.762 2.871-0.18 3.363 1.301l0.41 1.229c0.492 1.477 0.168 3.09-0.717 3.59-0.887 0.498-2.443-0.062-3.455-1.242l-0.85-0.992C12.449 7.98 12.732 6.393 14.088 5.629zM9.094 13.594l0.066-0.715c0.141-1.549 1.482-2.465 2.979-2.027l1.244 0.359c1.496 0.432 2.645 1.613 2.553 2.625-0.094 1.012-1.434 1.975-2.984 2.141l-1.301 0.137C10.104 16.277 8.951 15.143 9.094 13.594zM12.971 22.025l-0.527-0.482c-1.152-1.045-1.074-2.66 0.182-3.586l1.053-0.77c1.252-0.928 2.891-1.123 3.646-0.441 0.748 0.684 0.701 2.33-0.109 3.658l-0.676 1.105C15.729 22.842 14.123 23.07 12.971 22.025z" fill="#ffffff" data-fill-palette-color="quaternary"></path></svg></g></svg></g><g></g></svg></g></svg></g></svg></g></svg></g><defs></defs></svg><rect width="333.90454557049503" height="333.90454557049503" fill="none" stroke="none" visibility="hidden"></rect></g></svg></g></svg>